<?xml version="1.0" encoding="UTF-8" standalone="no"?>
<!-- Created with Inkscape (http://www.inkscape.org/) -->

<svg
   width="100mm"
   height="100mm"
   viewBox="0 0 100 100"
   version="1.1"
   id="svg5"
   xml:space="preserve"
   inkscape:version="1.2.2 (b0a8486541, 2022-12-01)"
   sodipodi:docname="fofcc-round.svg"
   inkscape:export-filename="fofcc.png"
   inkscape:export-xdpi="96"
   inkscape:export-ydpi="96"
   xmlns:inkscape="http://www.inkscape.org/namespaces/inkscape"
   xmlns:sodipodi="http://sodipodi.sourceforge.net/DTD/sodipodi-0.dtd"
   xmlns="http://www.w3.org/2000/svg"
   xmlns:svg="http://www.w3.org/2000/svg"><sodipodi:namedview
     id="namedview7"
     pagecolor="#ffffff"
     bordercolor="#000000"
     borderopacity="0.25"
     inkscape:showpageshadow="2"
     inkscape:pageopacity="0.0"
     inkscape:pagecheckerboard="0"
     inkscape:deskcolor="#d1d1d1"
     inkscape:document-units="mm"
     showgrid="false"
     inkscape:zoom="1.9159085"
     inkscape:cx="85.86005"
     inkscape:cy="180.59318"
     inkscape:window-width="1920"
     inkscape:window-height="1008"
     inkscape:window-x="0"
     inkscape:window-y="0"
     inkscape:window-maximized="1"
     inkscape:current-layer="layer1"
     showguides="true" /><defs
     id="defs2" /><g
     inkscape:label="Layer 1"
     inkscape:groupmode="layer"
     id="layer1"
     transform="translate(-120.04841,-87.140629)"><ellipse
       style="fill:none;fill-opacity:1;stroke:#008000;stroke-width:2.194;stroke-dasharray:none;stroke-opacity:1;stop-color:#000000"
       id="path6133-3"
       cx="170.04842"
       cy="137.14062"
       rx="47.607346"
       ry="47.790928" /><g
       id="g892"
       transform="rotate(36.220201,124.24723,155.37169)"><path
         id="path248"
         style="fill:#000000;stroke-width:0.264583"
         d="m 121.89184,101.61651 c -0.15152,0.13998 -0.24359,0.2649 -0.25195,0.36527 -0.054,0.64859 0.7457,1.15485 2.25844,1.42955 1.22526,0.22248 1.20236,0.1808 0.80675,1.44376 -0.5752,1.83638 0.14784,2.52118 1.99202,1.88558 l 2.19448,-0.90856 c 1.05585,-0.24752 0.72973,0.50373 -0.0169,1.98368 -0.34197,0.67787 -0.41746,1.19988 -0.2413,1.67303 0.35375,0.95002 1.16522,0.81422 2.32208,-0.36494 0.62508,-0.63712 1.31012,-1.1148 1.68437,-1.17447 0.60708,-0.0968 0.63241,-0.0398 0.66558,1.5087 0.0361,1.68616 0.54848,2.56192 1.2727,2.17529 0.23545,-0.12576 1.217,-1.07177 2.18086,-2.10266 1.27642,-1.36514 1.88702,-1.8737 2.24814,-1.8716 0.40966,0.002 0.47369,0.12607 0.36744,0.71089 -0.24694,1.3594 0.43089,1.49411 2.37832,0.47209 0.37721,-0.19797 0.4625,-0.1394 0.62972,0.43249 0.10639,0.36382 0.41622,0.71265 0.43385,0.73695 0.0176,0.0243 -0.90728,0.26181 -1.7998,0.5653 -1.28932,0.43842 -1.64754,0.66252 -1.74251,1.09209 -0.0951,0.43017 -0.32686,0.57394 -1.13488,0.70294 -1.2436,0.19852 -2.22933,1.12622 -2.09045,1.96766 0.0906,0.54872 0.0172,0.64272 -0.75488,0.96717 -0.47046,0.1977 -4.38068,3.2416 -4.8338,3.6125 -0.95765,0.78393 -0.97483,2.27383 -0.27365,4.54591 0.3023,0.97956 0.30799,1.95802 0.0193,3.55539 -0.53281,2.94823 -0.40217,4.23866 0.52159,5.14495 0.97489,0.95647 2.2937,1.34121 2.80659,0.81843 0.22121,-0.22547 0.49824,-0.96863 0.61534,-1.65137 0.23522,-1.37165 0.19898,-1.35782 2.15038,-0.81788 0.493,0.13642 0.92823,-0.22194 1.17207,-0.58398 0.66074,-0.98106 0.32553,-1.82574 0.27258,-3.53797 -0.0265,-0.85612 2.06665,-0.80517 2.53402,-1.71086 0.71004,-1.37595 -0.49504,-3.00507 -0.11218,-4.64371 0.0882,-0.3775 0.13168,-0.53818 1.10999,-0.91407 0.7067,-0.27154 1.04607,-0.11347 1.66926,-0.11941 0.90108,-0.009 0.60971,-0.4407 0.69914,-2.05538 0.0685,-1.2374 0.50281,-2.47579 0.86943,-2.47929 0.12402,-0.001 0.38175,0.15083 0.57219,0.33767 0.48275,0.47363 0.54725,0.33616 0.74609,-1.57955 0.19339,-1.86312 0.49413,-2.39288 1.04867,-1.84882 0.31116,0.30528 1.85436,2.50964 2.87339,4.10406 0.36534,0.57163 -0.16307,2.22493 -0.97577,3.0533 -0.32809,0.3344 -1.34964,1.03564 -2.27012,1.55827 -0.92049,0.52265 -1.96483,1.24934 -2.32112,1.61395 -0.78492,0.80432 -1.62567,3.10756 -1.56479,4.28528 0.0809,1.56395 0.97273,3.36855 2.2007,4.45324 0.98897,0.87361 1.22352,1.28542 1.99535,3.4989 0.79889,2.29084 1.0127,2.65475 2.46096,4.19387 1.45768,1.54906 1.73093,1.73617 3.37852,2.31562 0.98591,0.34672 2.1034,0.9457 2.70711,1.02111 1.48426,0.13907 3.03356,0.84313 4.34515,0.22875 1.42516,-0.67642 1.69511,-0.74015 3.47588,-3.21183 2.45066,-3.40137 2.84981,-4.45461 2.82643,-6.9039 -0.0141,-1.47555 -0.27701,-2.81259 -0.87756,-4.45967 -0.68713,-1.88455 -0.80879,-2.62132 -0.61163,-3.70504 0.13536,-0.74403 0.29478,-1.40288 0.35438,-1.46362 0.0596,-0.0607 1.0614,-0.0323 2.2264,0.0632 1.59571,0.13079 2.5807,0.0114 3.99349,-0.48429 3.94589,-1.42206 8.19473,-5.4223 6.62948,-11.83541 -0.82869,-2.4117 -2.07126,-4.32344 -3.67456,-5.65312 -1.47957,-1.22706 -2.87985,-1.77087 -5.99801,-2.32934 -1.43075,-0.25626 -2.15205,-0.4643 -2.72487,-1.02349 -1.8115,-1.766046 -5.30016,-2.18146 -7.68596,-0.840584 -1.47708,0.830164 -1.88103,1.409934 -3.56808,5.122224 -0.8129,1.78876 -0.86989,1.85763 -1.90626,2.31342 -0.68832,0.30271 -1.38519,0.37307 -1.95935,0.19739 -1.20096,-0.36745 -3.14889,-1.46754 -3.4373,-1.81222 -0.97286,-1.13945 -1.31078,-2.54808 -1.74714,-3.7187 -0.99047,-2.685488 -1.92653,-3.995867 -2.79149,-3.907145 -0.35165,0.03607 -0.45151,0.214281 -0.41965,0.750197 0.083,1.395488 -0.88205,0.857805 -1.6679,-0.929069 -0.16753,-0.374518 -0.71032,-1.604666 -1.64273,-2.73377 -1.87649,-2.326827 -3.65725,-2.378633 -3.94,-0.114785 -0.082,0.656629 -0.0614,1.109478 -0.47503,1.342353 -0.62449,0.351626 -1.12619,-0.115239 -2.105,-0.437784 -1.0829,-0.356843 -1.76176,-0.511882 -2.60558,-0.355543 -0.58277,0.107968 -1.43264,0.666951 -1.00223,1.468703 0.7267,1.353645 -1.84575,2.170316 -3.09438,2.683976 -0.9564,0.393447 -2.73332,1.282137 -3.38992,1.888707 z m 27.50429,8.06992 c 0.0612,-0.0667 0.23529,-0.0821 0.57457,-0.10233 0.84536,-0.0503 2.05401,1.02894 2.42663,2.16647 0.1378,0.42066 0.23286,1.50497 0.21156,2.40978 -0.0213,0.90482 -0.0755,1.68261 -0.12054,1.7285 -0.16564,0.16884 -0.99165,-0.44688 -0.99887,-0.7447 -0.007,-0.28602 -1.46291,-3.97733 -1.98964,-5.04396 -0.11265,-0.22806 -0.16478,-0.34686 -0.10371,-0.41376 z"
         sodipodi:nodetypes="ssssccssssscssssssssssscssssssasassssssssssscssscsccssssssccsscssssccssccsassssssssssssss" /><path
         style="fill:#803300;stroke-width:0.264583"
         d="m 151.28356,108.75041 c -0.003,-0.32223 -0.26935,-0.512 -1.07171,-0.76382 -0.58719,-0.18429 -2.13847,-0.87344 -3.44728,-1.53147 -2.12748,-1.06961 -2.4264,-1.14875 -2.82075,-0.74681 -0.2553,0.26023 -0.40426,0.87661 -0.32801,1.32526 0.0751,0.44177 0.36525,0.87319 0.73592,1.12498 0.3043,0.20664 1.08104,0.2212 1.08104,0.2212 1.74124,0.3563 5.53235,1.06689 5.74227,0.89279 0.0617,-0.0515 0.11077,-0.28632 0.10852,-0.52213 z"
         id="path1032"
         sodipodi:nodetypes="ssssaascs" /><path
         style="fill:#803300;stroke-width:0.264583"
         d="m 150.43858,113.53923 c -0.44436,-1.15744 -1.06476,-2.54063 -1.37866,-3.07376 -0.5299,-0.89997 -0.66513,-0.98453 -1.89029,-1.18206 -0.72576,-0.11702 -1.47326,-0.24347 -1.55191,-0.16774 -0.0786,0.0758 0.39111,0.66958 0.93471,1.20641 0.86607,0.8553 2.93213,3.79446 3.79057,5.39248 0.22351,0.41608 0.36885,0.47409 0.5993,0.2392 0.19954,-0.20338 0.0262,-1.03433 -0.50372,-2.41453 z"
         id="path1030" /><path
         style="fill:#44aa00;stroke-width:0.264583"
         d="m 142.51962,113.64349 c -0.40899,0.75097 -1.8402,3.31226 -1.86489,3.81151 -0.0247,0.49922 -0.27053,1.39523 -0.31599,1.07291 -0.0455,-0.32231 -0.042,-1.68 -0.14172,-1.67905 -0.0997,9.5e-4 -0.72475,0.92561 -1.46984,1.63496 -1.15277,1.09745 -4.18929,4.04568 -4.31048,4.90214 -0.0783,0.5536 -0.29493,1.5511 -0.33275,1.66341 l -0.69315,2.05867 c -0.0378,0.11233 0.48498,-3.42349 0.60735,-3.91862 0.12237,-0.49512 -2.01232,1.81227 -2.17864,1.77468 -0.19498,-0.0441 4.84716,-5.31815 5.39621,-5.69913 1.68183,-1.37691 5.59597,-5.95618 3.63741,-4.99638 -0.58819,0.28825 -1.99007,0.36416 -2.23773,0.12118 -0.10888,-0.10682 0.0917,-0.14604 0.44582,-0.0871 0.35407,0.0589 2.10021,-0.41868 2.71813,-0.64287 0.61792,-0.22417 1.96003,-2.64982 3.58704,-3.69457 0,0 -0.72482,0.13016 -3.00338,0.75232 -2.22776,0.60831 -2.43928,0.70493 -2.1594,1.08632 0.43567,0.59369 0.0666,0.85584 -1.42797,1.0142 -1.51415,0.16045 -2.15233,0.69987 -2.14173,1.8103 l 0.008,0.80012 -1.11157,0.37231 c -0.61137,0.20478 -4.35373,3.21964 -4.64446,3.51597 -0.62785,0.63996 -0.76863,1.49912 -0.37386,2.9893 l 0.44793,1.69096 0.9609,-1.09651 c 0.53748,-0.61338 0.45714,0.32957 -0.17782,1.03503 -0.72139,0.8014 -1.44146,4.78483 -1.24308,6.32103 0.11795,0.91339 0.83389,1.86898 1.87233,2.32346 0.83535,0.36558 1.06745,-0.50645 1.33747,-1.99869 0.26175,-1.44661 0.62916,-1.62573 1.74032,-1.27329 1.76563,0.56003 1.78841,0.46802 1.66047,-2.65266 -0.0662,-1.61342 2.29598,-1.38568 2.79953,-2.54094 0.5862,-1.34489 -0.8369,-3.16185 -0.0514,-4.40095 0.52464,-0.82765 1.94725,-1.34403 2.67317,-1.22327 0.59979,0.0998 0.64003,0.0674 0.58302,-0.46833 -0.20695,-1.94472 0.6932,-4.09388 1.71881,-4.10366 0.31443,-0.003 0.45174,-0.33678 0.53537,-1.30129 0.0619,-0.71349 0.30193,-1.49036 0.53348,-1.72638 0.84589,-0.86219 -0.21337,-0.79063 -1.13633,0.0621"
         id="path1028"
         sodipodi:nodetypes="csssssscsscsssscsssscssscscsssssaascsssc" /><path
         style="fill:none;stroke-width:0.264583"
         d="m 144.76574,110.95262 c -0.95006,0.70366 -1.58905,1.457 -2.24612,2.69087"
         id="path1026" /><path
         style="fill:#502d16;stroke-width:0.264583"
         d="m 163.44997,107.80498 1.94454,-6.10486 c -0.28476,-0.34284 -2.00118,-1.849314 -3.28218,-1.992596 -3.74928,-0.419277 -5.57875,1.340496 -6.71247,3.570746 -0.20134,0.50396 -0.41019,0.99509 -0.46411,1.09138 -0.054,0.0963 -0.25208,0.56067 -0.44036,1.03196 -0.41199,1.03128 -1.46185,2.14893 -2.25067,2.396 -0.51938,0.16267 -0.5176,0.22481 0.0184,0.64236 6.19751,-3.96117 8.04107,1.67714 10.37722,1.99924 0.12383,-0.13335 0.48798,-1.31894 0.8096,-2.6343 z"
         id="path1022"
         sodipodi:nodetypes="ccsccsscccc" /><path
         style="fill:#502d16;stroke-width:0.264583"
         d="m 161.82738,119.30975 0.73007,-8.09916 c -7.20436,-5.64433 -9.13451,-3.22406 -10.83696,-1.71124 -0.0645,0.0628 1.23547,1.60207 1.42728,2.56007 0.47218,2.35817 -0.4917,7.64551 4.81653,9.37542 0.39925,0.0716 0.66212,0.0588 1.44572,0.0116 1.76491,-0.10643 2.48593,-0.74371 2.41744,-2.13673 z"
         id="path1020"
         sodipodi:nodetypes="cccscscc" /><path
         style="fill:#502d16;stroke-width:0.264583"
         d="m 147.00823,120.40003 -0.86445,0.44583 c -1.0214,0.50428 -1.07455,0.64588 -1.82053,1.48487 -0.91252,1.35691 -0.79171,0.96449 -1.22363,3.04582 -0.26464,1.88123 0.49379,3.16365 1.82355,4.46827 0.96953,0.95121 1.76689,0.17813 2.59077,-0.0822 0.41672,-0.13167 1.09642,-0.71893 1.09642,-0.71893 -0.52393,-1.61866 -2.52991,-4.08807 -2.38265,-6.21026 0.0614,-0.88521 0.78052,-2.43341 0.78052,-2.43341 z"
         id="path1018"
         sodipodi:nodetypes="ccccsacsc" /><path
         style="fill:#502d16;stroke-width:0.264583"
         d="m 149.02851,128.52204 c 0.22978,0.36839 0.46567,0.20035 2.82245,-0.74523 0.54783,-0.21265 2.01271,-0.82109 3.09223,-1.18031 0.83129,-0.27662 1.28685,-0.38121 2.57199,-0.80114 2.97327,-0.74484 1.41524,-0.35046 4.16881,-1.21552 0.55693,-0.13979 1.96051,-0.0386 2.20385,-0.2866 0.087,-0.0887 0.1778,-0.73743 0.20178,-1.44166 l 1.5e-4,-6e-5 0.0436,-1.28044 -0.95496,-0.2569 c -2.51657,-0.30088 -1.37578,0.35118 -3.35246,0.6493 -0.50265,0.0758 -1.43296,0.0486 -2.06738,-0.0605 -1.31042,-0.45772 -3.10535,-1.22001 -3.66109,-2.65343 -1.15328,-2.9747 -3.31557,-3.22612 -3.80076,-2.01709 -0.0893,0.26912 -0.77069,1.09455 -1.51415,1.83428 l -1.38492,1.08188 c 0,0 -0.74443,1.7478 -0.82484,2.67147 -0.17949,2.06162 2.22591,5.33352 2.4557,5.70191 z"
         id="path1016"
         sodipodi:nodetypes="zcsccsccccscscccsz" /><path
         style="fill:#008000;stroke-width:0.264583"
         d="m 177.06881,109.62238 c -1.0323,-3.06513 -2.88459,-5.34647 -5.14444,-6.33602 -1.23002,-0.53861 -5.39204,-1.47422 -5.94857,-1.33721 -0.46539,0.11456 -2.28574,6.51802 -2.88587,10.1516 -0.64373,3.8976 -0.91439,7.26263 -0.64452,8.01339 0.25629,0.71305 2.93952,1.35488 5.64399,1.35007 2.99682,-0.005 4.15605,-0.54022 7.39704,-3.79721 2.98297,-2.76998 1.58237,-8.04462 1.58237,-8.04462 z"
         id="path1012" /><path
         style="fill:#008000;stroke-width:0.264583"
         d="m 161.75194,139.6307 c 0.38377,-0.50768 0.69882,-1.17308 1.42447,-2.11791 1.58992,-2.07016 2.40938,-4.15137 2.37836,-6.04041 -0.025,-1.52059 -1.49687,-6.38078 -1.96441,-6.48645 -0.70927,-0.16031 -5.78814,1.14275 -8.98516,2.30525 -3.23583,1.17663 -7.46607,3.11743 -8.0155,3.67745 -0.12697,0.12942 0.1541,1.31547 0.6246,2.63566 1.46725,4.11699 3.71949,6.13315 7.89117,7.00509 1.27711,0.26693 2.30333,0.5431 2.65354,0.614 1.57418,0.31865 3.13028,-0.45138 3.99293,-1.59268 z"
         id="path1008"
         sodipodi:nodetypes="cscscssssc" /><path
         style="fill:#44aa00;stroke-width:0.264583"
         d="m 125.30917,106.53932 c -0.46307,-0.1354 -0.5146,-0.32018 -0.32129,-1.15205 0.12664,-0.54493 0.46033,-0.80207 0.46116,-1.22755 0.001,-0.71147 -0.41177,-1.0373 -1.7502,-1.22164 -2.65041,-0.36504 -0.98911,-1.65943 1.62478,-2.82516 3.04118,-1.356294 3.93627,-1.436727 3.42658,-2.962654 -0.50969,-1.525935 1.38696,-1.272673 3.25268,-0.698657 1.02702,0.315969 1.61824,0.696947 2.29152,0.320684 0.41608,-0.232524 0.51443,-0.836979 0.5733,-1.309971 0.135,-1.084683 0.63807,-1.885926 1.29532,-1.648461 1.42063,0.513268 2.72108,2.42963 3.39315,4.067916 0.69248,1.688041 1.18329,2.427643 2.23005,2.264523 0.43288,-0.0675 0.50472,-0.14299 0.59352,-1.172656 0.0888,-1.029659 1.35211,0.72814 2.00169,2.725346 0.34075,1.04773 0.87369,2.34448 1.18429,2.88169 l 0.56472,0.97673 -0.86637,-0.34477 c -0.47651,-0.18962 -1.16206,-0.20225 -1.31716,-0.0442 -0.40509,0.41289 -1.25183,-0.12765 -2.7324,-1.51985 -1.08137,-1.0168 -1.18534,-1.07411 -0.64606,-0.35584 l 0.6428,0.85603 -1.66638,-0.61557 c -1.04669,-0.38665 -2.01242,-0.94772 -2.59776,-1.50798 -0.51199,-0.4911 -1.34474,-1.15113 -1.84996,-1.46734 -0.70727,-0.44257 -0.59489,-0.30586 0.48824,0.59431 1.58329,1.31582 1.43136,1.7086 -0.39961,0.98982 -1.79287,-0.70382 -6.44833,-1.57548 -6.61438,-1.35119 -0.0446,0.0602 4.46432,0.93782 5.22283,1.25688 0.75852,0.31904 1.85512,0.38314 -0.13412,0.71996 -1.42692,0.2416 -1.0632,0.39889 1.54876,0.10023 1.24085,-0.14189 4.62808,0.82539 6.08376,1.73733 l 0.76676,0.48035 -1.25937,0.19475 c -1.19688,0.18508 -1.17045,0.19461 0.53247,0.19209 1.8775,-0.003 2.32667,0.14816 1.85908,0.62476 -0.34884,0.35556 0.0912,1.6906 0.55233,2.31986 0.13461,0.18362 0.33719,0.56669 -0.0124,0.92298 -0.40611,0.41393 -0.6754,0.16817 -0.83486,-0.20322 -0.41983,-0.97779 -0.70987,-1.06264 -1.75176,-0.51248 -1.15242,0.60854 -1.45771,0.5205 -1.204,-0.34725 0.20753,-0.70987 -0.13122,-1.07553 -0.94217,-1.01696 -0.92963,0.0671 -1.95681,0.85842 -2.86658,2.20824 -0.89219,1.32373 -1.68884,1.94024 -2.0497,1.5862 -0.12679,-0.12439 -0.25436,-0.91674 -0.28351,-1.76077 -0.0291,-0.84403 -0.17389,-1.65323 -0.32168,-1.79822 -0.40748,-0.39978 -1.46143,0.0238 -2.67835,1.30529 -1.54717,1.62922 -2.46356,1.05858 -1.33167,-1.14582 0.88705,-1.72759 0.98146,-2.99403 -1.57604,-1.72215 -1.46947,0.6124 -2.27871,0.69511 -2.58207,0.60642 z"
         id="path1006"
         sodipodi:nodetypes="sssssssasssazsscsssccsccssszssscssssssssssssssscs" /><path
         style="fill:#000000;stroke-width:0.264583"
         d="m 172.9036,106.06072 c -1.08276,-1.01494 -2.11158,-1.46903 -4.58394,-2.0232 -1.24148,-0.27827 -1.46182,-0.3763 -0.73317,-0.3262 2.40854,0.1656 6.51273,2.07516 6.31742,2.93931 -0.037,0.16378 -0.46653,-0.0896 -1.00031,-0.58991 z"
         id="path1014" /><path
         style="fill:#000000;stroke-width:0.264583"
         d="m 163.69042,133.24554 c 0.31393,-1.35158 0.096,-3.23897 -0.60956,-5.27774 -0.34629,-1.00068 -0.56698,-1.82002 -0.49041,-1.82075 0.17324,-0.002 1.0505,2.41185 1.41531,3.89381 0.2699,1.09641 0.0717,3.50553 -0.32118,3.90324 -0.11248,0.11389 -0.10984,-0.2005 0.006,-0.69856 z"
         id="path1010" /></g><circle
       style="fill:none;stroke:none;stroke-width:0.136;stop-color:#000000"
       id="path946"
       cx="170.71045"
       cy="141.32256"
       r="33.038605" /><g
       aria-label="                           Friends of"
       transform="rotate(2.3399936,289.69408,125.27198)"
       id="text1608"
       style="font-weight:bold;font-size:12.7px;-inkscape-font-specification:'sans-serif Bold';letter-spacing:-0.0264583px;fill:#008000;stroke:#668759;stroke-width:0.436;stop-color:#000000"><path
         d="m 133.57853,120.86768 3.47391,-5.42627 1.51977,0.97296 -2.18666,3.41557 1.45188,0.9295 2.05627,-3.21189 1.51977,0.97296 -2.05626,3.21189 3.30589,2.11645 -1.28725,2.0107 z"
         style="fill:#000000;stroke:#000000"
         id="path516" /><path
         d="m 145.85243,112.29338 q -0.30214,0.11077 -0.55146,0.27395 -0.24936,0.15442 -0.45467,0.36129 -0.60282,0.6074 -0.53871,1.32628 0.0641,0.71012 0.79032,1.43088 l 2.27115,2.25402 -1.56384,1.57573 -4.92963,-4.89246 1.56384,-1.57572 0.80987,0.80376 q -0.18275,-0.78421 -0.014,-1.39435 0.16867,-0.61891 0.7147,-1.1691 0.0786,-0.0792 0.17917,-0.16292 0.0961,-0.0881 0.29287,-0.24228 z"
         style="fill:#000000;stroke:#000000"
         id="path518" /><path
         d="m 146.27278,109.65439 1.79367,-1.30815 4.09253,5.61146 -1.79366,1.30815 z m -1.59316,-2.18447 1.79366,-1.30814 1.06698,1.46298 -1.79366,1.30815 z"
         style="fill:#000000;stroke:#000000"
         id="path520" /><path
         d="m 158.69631,106.61755 0.26624,0.57376 -4.70816,2.18478 q 0.40202,0.67482 1.00522,0.8256 0.6032,0.15078 1.3907,-0.21466 0.63563,-0.29496 1.21325,-0.78859 0.58063,-0.50188 1.10626,-1.21066 l 0.72044,1.55251 q -0.58909,0.6015 -1.24083,1.06801 -0.64912,0.47213 -1.3635,0.80363 -1.71001,0.79352 -3.06262,0.36839 -1.3496,-0.43335 -2.07786,-2.00274 -0.71521,-1.54126 -0.19689,-2.85509 0.52395,-1.31643 2.15521,-2.0734 1.48501,-0.68911 2.7888,-0.20715 1.30941,0.47935 2.00374,1.97561 z m -2.38064,0.2912 q -0.26625,-0.57376 -0.76558,-0.7659 -0.49633,-0.20037 -1.03633,0.0502 -0.58501,0.27146 -0.79663,0.77301 -0.21423,0.49592 -0.0171,1.15643 z"
         style="fill:#000000;stroke:#000000"
         id="path522" /><path
         d="m 167.97576,103.98585 0.70161,4.1706 -2.20149,0.37034 -0.11419,-0.67879 -0.42282,-2.51336 q -0.14916,-0.88671 -0.24855,-1.21585 -0.0933,-0.33017 -0.21786,-0.4727 -0.16443,-0.19243 -0.40412,-0.27159 -0.24073,-0.0853 -0.52203,-0.0379 -0.68491,0.11522 -0.98678,0.71309 -0.30291,0.59175 -0.14551,1.52738 l 0.56684,3.3695 -2.18926,0.36829 -1.15219,-6.84908 2.18926,-0.36828 0.16871,1.0029 q 0.39452,-0.68263 0.90369,-1.05754 0.50813,-0.38103 1.18081,-0.4942 1.18636,-0.19957 1.9203,0.42527 0.74006,0.62381 0.97358,2.01197 z"
         style="fill:#000000;stroke:#000000"
         id="path524" /><path
         d="m 176.06776,102.70193 0.39055,-3.700149 2.22009,0.234331 -1.01284,9.595718 -2.22008,-0.23433 0.10544,-0.99904 q -0.52079,0.56236 -1.09959,0.7881 -0.57879,0.22575 -1.30032,0.14959 -1.27655,-0.13474 -1.99,-1.23269 -0.7128,-1.10411 -0.54421,-2.70134 0.16859,-1.59723 1.09554,-2.52203 0.9276,-0.93097 2.20415,-0.79623 0.71536,0.0755 1.23362,0.42328 0.52508,0.34226 0.91765,0.99479 z m -1.92731,4.3174 q 0.70919,0.0748 1.13388,-0.40411 0.43086,-0.47832 0.53501,-1.46503 0.10415,-0.9867 -0.21736,-1.54443 -0.31533,-0.55707 -1.02453,-0.63193 -0.70303,-0.0742 -1.13389,0.40411 -0.42469,0.47896 -0.52884,1.46567 -0.10414,0.98671 0.21119,1.54378 0.32151,0.55773 1.02454,0.63194 z"
         style="fill:#000000;stroke:#000000"
         id="path526" /><path
         d="m 187.15754,105.00514 -0.58978,1.58025 q -0.56404,-0.52823 -1.13364,-0.89967 -0.5696,-0.37145 -1.12153,-0.57744 -0.59259,-0.22117 -0.93945,-0.17853 -0.33888,0.039 -0.45381,0.34691 -0.0932,0.24981 0.0719,0.46367 0.1709,0.21602 0.71059,0.49025 l 0.3465,0.18889 q 1.52178,0.79964 1.90024,1.47041 0.37845,0.67077 0.008,1.66423 -0.38813,1.03994 -1.35017,1.27659 -0.96203,0.23666 -2.48418,-0.33145 -0.64487,-0.24068 -1.2972,-0.60329 -0.64869,-0.35463 -1.29901,-0.82901 l 0.58979,-1.58024 q 0.50888,0.53411 1.1032,0.92802 0.60012,0.39607 1.27404,0.6476 0.61003,0.22768 0.98082,0.17412 0.3708,-0.0536 0.49439,-0.38472 0.10408,-0.27886 -0.061,-0.49272 -0.15711,-0.21749 -0.76218,-0.52936 l -0.34867,-0.18309 q -1.32347,-0.69252 -1.70557,-1.37127 -0.3821,-0.67875 -0.0243,-1.63735 0.38596,-1.03413 1.28122,-1.26923 0.89526,-0.2351 2.35931,0.31132 0.57517,0.21467 1.1759,0.53816 0.60074,0.3235 1.27499,0.78695 z"
         style="fill:#000000;stroke:#000000"
         id="path528" /><path
         d="m 196.60014,112.74085 q -0.54693,-0.4954 -1.1945,-0.36241 -0.63882,0.13255 -1.30907,0.87251 -0.67025,0.73996 -0.74332,1.39333 -0.0643,0.65293 0.48261,1.14834 0.53774,0.48707 1.17655,0.35452 0.64298,-0.13715 1.31323,-0.87711 0.67025,-0.73996 0.73916,-1.38873 0.0731,-0.65337 -0.46466,-1.14045 z m 1.06574,-1.17658 q 1.32825,1.20313 1.42337,2.59452 0.0997,1.39556 -1.04929,2.66406 -1.14901,1.26851 -2.5476,1.30691 -1.39399,0.0426 -2.72224,-1.16056 -1.33285,-1.20729 -1.43716,-2.60701 -0.0997,-1.39556 1.04929,-2.66406 1.14901,-1.26851 2.5476,-1.30691 1.40318,-0.0342 2.73603,1.17305 z"
         style="fill:#000000;stroke:#000000"
         id="path530" /><path
         d="m 207.11801,118.84246 -1.18519,0.84791 -0.71442,-0.99859 q -0.27422,-0.3833 -0.52368,-0.43357 -0.24441,-0.0539 -0.58736,0.19147 l -0.39339,0.28144 1.1041,1.54328 -1.29111,0.92368 -1.10409,-1.54327 -4.35749,3.11744 -1.29172,-1.80553 4.35749,-3.11744 -0.64225,-0.89773 1.2911,-0.92368 0.64225,0.89772 0.39339,-0.28144 q 0.92294,-0.66029 1.72975,-0.45977 0.81185,0.1969 1.58399,1.27619 z"
         style="fill:#000000;stroke:#000000"
         id="path532" /></g><g
       aria-label="Colden Clough"
       transform="rotate(-1.066389,153.5895,167.12475)"
       id="text2391"
       style="font-weight:bold;font-size:12.7px;line-height:0;-inkscape-font-specification:'sans-serif Bold';letter-spacing:1.46579px;fill:#008000;stroke:#668759;stroke-width:0.436;stop-color:#000000"><path
         d="m 130.21482,148.492 q -0.46646,-0.57516 -0.78017,-1.23871 -0.3137,-0.66355 -0.46982,-1.42281 -0.46586,-2.26564 0.52527,-3.84958 0.99722,-1.58518 3.16567,-2.03106 2.17452,-0.44713 3.71021,0.61724 1.54176,1.06312 2.00762,3.32876 0.15612,0.75926 0.12968,1.49275 -0.0264,0.7335 -0.22813,1.44604 l -1.8769,0.38593 q 0.30977,-0.7411 0.3864,-1.41527 0.0766,-0.67417 -0.067,-1.37269 -0.25729,-1.25127 -1.20645,-1.80315 -0.94916,-0.55188 -2.35835,-0.26212 -1.40311,0.28851 -2.05751,1.17012 -0.65441,0.8816 -0.39712,2.13287 0.14363,0.69852 0.48004,1.28776 0.33641,0.58924 0.91346,1.14799 z"
         style="fill:#000000;stroke:#000000"
         id="path491" /><path
         d="m 137.35024,152.13908 q -0.34007,-0.65492 -0.9934,-0.75587 -0.64497,-0.0983 -1.53103,0.36178 -0.88605,0.46009 -1.18217,1.04707 -0.28776,0.58962 0.0523,1.24454 0.33435,0.6439 0.97932,0.74221 0.65048,0.0954 1.53653,-0.36464 0.88606,-0.46009 1.17667,-1.04421 0.29612,-0.58698 -0.0382,-1.23088 z m 1.40889,-0.73158 q 0.82587,1.5905 0.43028,2.92786 -0.39273,1.34287 -1.91168,2.1316 -1.51896,0.78873 -2.8433,0.33746 -1.32149,-0.44575 -2.14737,-2.03625 -0.82873,-1.596 -0.43886,-2.94437 0.39273,-1.34287 1.91169,-2.1316 1.51895,-0.78872 2.8433,-0.33746 1.3272,0.45676 2.15594,2.05276 z"
         style="fill:#000000;stroke:#000000"
         id="path493" /><path
         d="m 143.61621,154.398 1.40195,1.72134 -7.48159,6.0934 -1.40195,-1.72134 z"
         style="fill:#000000;stroke:#000000"
         id="path495" /><path
         d="m 147.33354,163.34139 2.35865,-2.87757 1.72654,1.41519 -6.11677,7.4625 -1.72654,-1.41519 0.63684,-0.77695 q -0.74408,0.1839 -1.35175,0.0547 -0.60767,-0.12925 -1.16879,-0.58919 -0.99276,-0.81374 -0.98593,-2.1231 0.0108,-1.31417 1.02892,-2.55632 1.01815,-1.24215 2.30071,-1.50585 1.28649,-0.2685 2.27925,0.54524 0.55633,0.456 0.79841,1.03128 0.25081,0.57441 0.22046,1.33531 z m -3.98188,2.54933 q 0.55153,0.45207 1.1695,0.28508 0.62277,-0.16307 1.25174,-0.93042 0.62897,-0.76735 0.66663,-1.41001 0.0425,-0.63872 -0.50908,-1.09079 -0.54674,-0.44815 -1.1695,-0.28508 -0.61797,0.16699 -1.24694,0.93434 -0.62898,0.76735 -0.67143,1.40608 -0.0377,0.64265 0.50908,1.0908 z"
         style="fill:#000000;stroke:#000000"
         id="path497" /><path
         d="m 156.14405,171.05704 -0.27055,0.57174 -4.69162,-2.22007 q -0.26134,0.74075 0.009,1.30077 0.27012,0.56002 1.05486,0.93136 0.63339,0.29972 1.38235,0.42773 0.75721,0.12506 1.63823,0.0755 l -0.73206,1.54706 q -0.83919,-0.0678 -1.61472,-0.27013 -0.77818,-0.19672 -1.49005,-0.53358 -1.70401,-0.80633 -2.24283,-2.1178 -0.53057,-1.31443 0.20945,-2.8783 0.72676,-1.53585 2.06806,-1.97823 1.34691,-0.43974 2.97244,0.32946 1.4798,0.70024 1.9437,2.01056 0.46951,1.31297 -0.23603,2.80398 z m -1.74711,-1.64312 q 0.27055,-0.57174 0.0987,-1.07841 -0.16361,-0.50962 -0.70172,-0.76425 -0.58295,-0.27585 -1.10379,-0.11755 -0.51818,0.1527 -0.89963,0.72685 z"
         style="fill:#000000;stroke:#000000"
         id="path499" /><path
         d="m 165.36331,172.4564 -0.85452,4.14197 -2.18638,-0.45107 0.13908,-0.67414 0.51497,-2.49611 q 0.18168,-0.88062 0.20808,-1.22342 0.0325,-0.34155 -0.0321,-0.5195 -0.0837,-0.23888 -0.27852,-0.39938 -0.19357,-0.16657 -0.47294,-0.22421 -0.68021,-0.14033 -1.17791,0.30785 -0.49644,0.44212 -0.68815,1.37133 l -0.69038,3.34637 -2.17423,-0.44856 1.40332,-6.80207 2.17423,0.44857 -0.20548,0.99601 q 0.61472,-0.49369 1.22502,-0.65904 0.61156,-0.17142 1.27962,-0.0336 1.17822,0.24308 1.63644,1.09109 0.4643,0.84927 0.17987,2.22791 z"
         style="fill:#000000;stroke:#000000"
         id="path501" /><path
         d="m 181.19531,174.98896 q -0.5899,0.44768 -1.26322,0.73983 -0.67332,0.29215 -1.43722,0.42372 -2.27947,0.39258 -3.83064,-0.6491 -1.55221,-1.0478 -1.92795,-3.2295 -0.3768,-2.18781 0.73652,-3.68838 1.11227,-1.50669 3.39174,-1.89927 0.7639,-0.13157 1.49616,-0.0815 0.73226,0.0501 1.43794,0.27463 l 0.32522,1.88836 q -0.73073,-0.3335 -1.40208,-0.43182 -0.67135,-0.0983 -1.37414,0.0227 -1.25891,0.21682 -1.8411,1.14769 -0.58219,0.93088 -0.33801,2.34868 0.24313,1.41168 1.10318,2.09417 0.86006,0.68248 2.11896,0.46566 0.70279,-0.12103 1.30257,-0.43828 0.59978,-0.31724 1.17685,-0.87597 z"
         style="fill:#000000;stroke:#000000"
         id="path503" /><path
         d="m 181.03929,165.33605 2.0766,-0.78499 3.41186,9.02568 -2.07661,0.78499 z"
         style="fill:#000000;stroke:#000000"
         id="path505" /><path
         d="m 189.78773,165.73921 q -0.62908,0.38577 -0.68333,1.04462 -0.0522,0.65033 0.4697,1.50144 0.52192,0.85111 1.12846,1.10475 0.60859,0.24511 1.23767,-0.14065 0.61851,-0.37928 0.67072,-1.02961 0.049,-0.65562 -0.47295,-1.50672 -0.52192,-0.85111 -1.12522,-1.09947 -0.60654,-0.25364 -1.22505,0.12564 z m -0.82988,-1.35331 q 1.52777,-0.93686 2.88987,-0.63734 1.36738,0.29628 2.2621,1.75532 0.89471,1.45904 0.53874,2.81211 -0.35069,1.34984 -1.87845,2.28669 -1.53305,0.9401 -2.90572,0.64707 -1.36739,-0.29628 -2.2621,-1.75532 -0.89472,-1.45904 -0.53875,-2.81212 0.36126,-1.35631 1.89431,-2.29641 z"
         style="fill:#000000;stroke:#000000"
         id="path507" /><path
         d="m 196.33456,164.65851 -3.04274,-2.95515 1.55534,-1.60144 0.49822,0.48388 q 0.40481,0.39316 1.01438,0.99382 0.60512,0.59634 0.80975,0.79508 0.60054,0.58325 0.89769,0.81134 0.2927,0.22376 0.48625,0.26479 0.25075,0.0533 0.48648,-0.0203 0.24006,-0.0781 0.4388,-0.28269 0.48388,-0.49823 0.37782,-1.15448 -0.10606,-0.65626 -0.78668,-1.31728 l -2.46,-2.38917 1.5467,-1.59255 4.98228,4.83884 -1.5467,1.59254 -0.72065,-0.6999 q 0.086,0.78372 -0.0981,1.39159 -0.18421,0.5991 -0.65513,1.08398 -0.83816,0.863 -1.8082,0.80262 -0.96573,-0.0648 -1.97553,-1.04556 z"
         style="fill:#000000;stroke:#000000"
         id="path509" /><path
         d="m 206.57674,153.92595 q 0.309,0.69599 0.29088,1.31699 -0.0181,0.621 -0.36991,1.25555 -0.61639,1.11181 -1.89247,1.35446 -1.28151,0.23965 -2.63737,-0.51204 -1.36129,-0.75469 -1.82614,-1.96252 -0.47027,-1.21083 0.14611,-2.32264 0.35179,-0.63454 0.86887,-0.97892 0.51708,-0.34438 1.2765,-0.44805 l -0.90029,-0.49912 1.08243,-1.95244 5.46143,3.0278 q 1.46433,0.81182 1.72031,2.16619 0.26441,1.35196 -0.70978,3.10916 -0.31571,0.56947 -0.69715,1.05286 -0.38144,0.48339 -0.85808,0.92109 l -1.51314,-0.83889 q 0.5755,-0.34744 0.98712,-0.75737 0.41704,-0.40693 0.69065,-0.90047 0.52919,-0.95453 0.35814,-1.63077 -0.17105,-0.67625 -1.0605,-1.16935 z m -4.48975,-0.81578 q -0.33375,0.60201 -0.0754,1.18482 0.2583,0.58281 1.07182,1.03382 0.83522,0.46304 1.4495,0.37817 0.60886,-0.0879 0.95463,-0.71157 0.33676,-0.60743 0.0785,-1.19024 -0.25831,-0.5828 -1.06641,-1.03081 -0.81352,-0.45101 -1.44466,-0.36131 -0.63114,0.0897 -0.9679,0.69712 z"
         style="fill:#000000;stroke:#000000"
         id="path511" /><path
         d="m 207.47635,141.39737 4.11807,0.96313 -0.5084,2.17377 -0.67025,-0.15676 -2.46963,-0.5776 q -0.88762,-0.2076 -1.22961,-0.243 -0.34057,-0.0414 -0.52016,0.0185 -0.241,0.0774 -0.40656,0.26792 -0.17161,0.18913 -0.23657,0.46689 -0.15817,0.67628 0.27677,1.18559 0.42891,0.5079 1.35276,0.72397 l 3.32706,0.77813 -0.50558,2.16169 -9.39547,-2.19742 0.50557,-2.16169 3.62294,0.84734 q -0.47736,-0.6275 -0.62661,-1.24194 -0.15528,-0.61585 6e-5,-1.28006 0.27398,-1.17141 1.13375,-1.60718 0.86118,-0.44181 2.23186,-0.12123 z"
         style="fill:#000000;stroke:#000000"
         id="path513" /></g><ellipse
       style="fill:none;stroke:none;stroke-width:0.161044;stop-color:#000000"
       id="path2393"
       cx="-158.47791"
       cy="149.03825"
       transform="matrix(-0.99743751,0.07154304,0.07983192,0.99680834,0,0)"
       rx="41.790314"
       ry="39.57383" /></g></svg>
